# xmcd CD database file
#
# Track frame offsets:
#	150
#	32145
#	89525
#	113377
#	139022
#
# Disc length: 2434 seconds
#
# Revision: 0
# Processed by: cddbd v1.5.1PL2 Copyright (c) Steve Scherf et al.
# Submitted via: CDex 1.51
#
DISCID=37098005
DTITLE=T.Honda TRIO - I LOVE YOU
DYEAR=1995
DGENRE=Jazz
TTITLE0=I Love You
TTITLE1=Here's That Rainy Day
TTITLE2=Sunny
TTITLE3=Willow Weep For Me
TTITLE4=Autumn Leaves
EXTD=YEAR: 1995
EXTT0=
EXTT1=
EXTT2=
EXTT3=
EXTT4=
PLAYORDER=
